<?xml version="1.0" encoding="utf-8"?>
<!-- Generator: Adobe Illustrator 24.0.2, SVG Export Plug-In . SVG Version: 6.00 Build 0)  -->
<svg version="1.1" id="Layer_1" xmlns="http://www.w3.org/2000/svg" xmlns:xlink="http://www.w3.org/1999/xlink" x="0px" y="0px"
	 viewBox="0 0 309 467" style="enable-background:new 0 0 309 467;" xml:space="preserve">
<style type="text/css">
	.st0{fill:#FFFFFF;}
</style>
<title>Untitled-22</title>
<circle cx="151.4" cy="230.6" r="124.4"/>
<path class="st0" d="M238.1,147.7L152,118l-81.2,29.7v39.1c0,0,4.9,22.3,21.1,39.1s42.2,14.8,42.2,14.8l44.9,0.1
	c0,0,22.2,8.8,21.1,21.7l-45.7,39.1l-49-41.1v-9.4c0,0-25.4-10.9-34.6-23.7v50.9l83.6,70.7l83.6-72.2c0,0,0-13.1-2.6-24.7
	c-1.6-7-4-12.9-6.3-16.7c0,0-12.2-23.9-49-28.8l-46-1c0,0-26.5-2-28.7-30.2l46.5-20.3l49.3,19.8l0.5,21.3c0,0,30.9,15.3,36.3,24.2
	V147.7z"/>
</svg>
